<?xml version="1.0" encoding="utf-8"?>
<!-- Generator: Adobe Illustrator 22.0.1, SVG Export Plug-In . SVG Version: 6.00 Build 0)  -->
<svg version="1.1" id="Layer_1" xmlns="http://www.w3.org/2000/svg" xmlns:xlink="http://www.w3.org/1999/xlink" x="0px" y="0px"
	 viewBox="0 0 57 57" style="enable-background:new 0 0 57 57;" xml:space="preserve">
<style type="text/css">
	.st0{opacity:0.22;fill:#E80E72;}
	.st1{opacity:0.6233;}
	.st2{opacity:0.8883;}
	.st3{opacity:0.8345;}
	.st4{opacity:0.858;}
	.st5{opacity:0.9787;}
	.st6{opacity:0.4644;}
	.st7{opacity:0.6476;}
	.st8{opacity:0.8761;}
	.st9{opacity:0.8606;}
	.st10{opacity:0.22;fill:#FFDE0C;}
	.st11{opacity:0.4629;}
	.st12{opacity:0.8457;}
	.st13{opacity:0.3684;}
	.st14{opacity:0.9913;}
	.st15{opacity:0.22;fill:#5FCAE9;}
	.st16{opacity:0.5409;}
	.st17{opacity:0.5834;}
	.st18{opacity:0.6041;}
	.st19{opacity:0.6225;}
	.st20{opacity:0.4391;}
	.st21{opacity:0.567;}
	.st22{opacity:0.9937;}
	.st23{opacity:0.906;}
	.st24{opacity:0.3377;}
	.st25{fill:#1C1E21;}
</style>
<g>
	<g>
		<path class="st25" d="M25.7,13.4h3.2v28.7c0,3.9-1,7-2.9,9.3c-1.9,2.3-4.4,3.4-7.6,3.4c-3.3,0-5.9-1-7.7-3.1C8.9,49.7,8,46.8,8,43
			h3.2c0,3,0.6,5.2,1.9,6.6c1.3,1.5,3.1,2.2,5.3,2.2c2.2,0,3.9-0.9,5.2-2.6s2-4.1,2-7V13.4z"/>
	</g>
	<g>
		<path class="st25" d="M51.4,5.2H39.8V43h-3.2V5.2H25v-3h26.4V5.2z"/>
	</g>
</g>
</svg>
