<?xml version="1.0" encoding="UTF-8"?>
<svg xmlns="http://www.w3.org/2000/svg" width="746" height="179" viewBox="0 0 746 179" fill="none">
  <path d="M238.299 91.6738V82.4608H252.367C254.774 82.4608 256.808 82.0873 258.468 81.3403C260.211 80.5933 261.539 79.5558 262.452 78.2278C263.365 76.8168 263.821 75.1153 263.821 73.1233C263.821 70.1353 262.825 67.8942 260.833 66.4002C258.841 64.9062 256.019 64.1592 252.367 64.1592H243.652V118.69H254.359C257.098 118.69 259.547 118.358 261.705 117.694C263.863 116.947 265.564 115.785 266.809 114.208C268.137 112.548 268.801 110.307 268.801 107.485C268.801 105.659 268.428 104.082 267.681 102.754C266.934 101.426 265.896 100.347 264.568 99.5174C263.24 98.6874 261.705 98.1064 259.962 97.7744C258.302 97.3594 256.434 97.1519 254.359 97.1519H238.299V85.6978H256.725C260.958 85.6978 265.066 86.1543 269.05 87.0673C273.034 87.9803 276.645 89.4743 279.882 91.5493C283.119 93.5413 285.692 96.1144 287.601 99.2684C289.593 102.339 290.589 106.074 290.589 110.473C290.589 116.283 289.178 120.973 286.356 124.542C283.617 128.111 279.716 130.767 274.653 132.51C269.59 134.17 263.614 135 256.725 135H222.611V47.8497H254.608C260.667 47.8497 265.979 48.6797 270.544 50.3397C275.192 51.9167 278.844 54.3652 281.5 57.6852C284.239 60.9222 285.609 65.0307 285.609 70.0108C285.609 74.5758 284.239 78.4768 281.5 81.7138C278.844 84.9508 275.192 87.4408 270.544 89.1838C265.979 90.8438 260.667 91.6738 254.608 91.6738H238.299ZM315.497 135V117.694H359.445V135H315.497ZM315.497 65.1552V47.8497H359.445V65.1552H315.497ZM315.497 97.6499V80.7178H356.955V97.6499H315.497ZM301.553 47.8497H321.722V135H301.553V47.8497ZM421.763 47.8497H445.916L415.413 99.5174V135H393.999V99.6419L363.496 47.8497H387.649L404.706 80.5933L421.763 47.8497ZM462.394 91.4248C462.394 96.5709 463.39 101.136 465.382 105.12C467.457 109.021 470.32 112.092 473.972 114.333C477.707 116.574 482.065 117.694 487.045 117.694C491.942 117.694 496.216 116.574 499.868 114.333C503.603 112.092 506.467 109.021 508.459 105.12C510.534 101.136 511.571 96.5709 511.571 91.4248C511.571 86.2788 510.575 81.7553 508.583 77.8543C506.591 73.8703 503.769 70.7578 500.117 68.5167C496.465 66.2757 492.108 65.1552 487.045 65.1552C482.065 65.1552 477.707 66.2757 473.972 68.5167C470.32 70.7578 467.457 73.8703 465.382 77.8543C463.39 81.7553 462.394 86.2788 462.394 91.4248ZM440.108 91.4248C440.108 84.7018 441.27 78.5598 443.594 72.9988C446.001 67.4377 449.321 62.6237 453.554 58.5567C457.787 54.4897 462.767 51.3772 468.494 49.2192C474.221 46.9782 480.405 45.8577 487.045 45.8577C493.768 45.8577 499.951 46.9782 505.595 49.2192C511.322 51.3772 516.302 54.4897 520.535 58.5567C524.768 62.6237 528.047 67.4377 530.371 72.9988C532.695 78.5598 533.857 84.7018 533.857 91.4248C533.857 98.1479 532.695 104.331 530.371 109.975C528.13 115.619 524.893 120.516 520.66 124.666C516.51 128.816 511.571 132.053 505.844 134.377C500.117 136.619 493.851 137.739 487.045 137.739C480.156 137.739 473.848 136.619 468.121 134.377C462.394 132.053 457.414 128.816 453.181 124.666C449.03 120.516 445.793 115.619 443.469 109.975C441.228 104.331 440.108 98.1479 440.108 91.4248ZM603.738 47.8497H624.031V139.358L563.773 85.9468V135H543.604V43.4922L603.738 96.9029V47.8497ZM638.715 47.8497H660.378V135H638.715V47.8497ZM669.841 135H652.659V116.325H669.094C672.414 116.325 675.609 115.91 678.68 115.08C681.834 114.25 684.573 112.88 686.897 110.971C689.304 109.062 691.213 106.531 692.624 103.377C694.035 100.14 694.741 96.1559 694.741 91.4248C694.741 86.6938 694.035 82.7513 692.624 79.5973C691.213 76.3603 689.304 73.7873 686.897 71.8783C684.573 69.9693 681.834 68.5997 678.68 67.7697C675.609 66.9397 672.414 66.5247 669.094 66.5247H652.659V47.8497H669.841C679.386 47.8497 687.644 49.6342 694.616 53.2032C701.588 56.7722 706.983 61.7937 710.801 68.2677C714.619 74.7418 716.528 82.4608 716.528 91.4248C716.528 100.306 714.619 108.025 710.801 114.582C706.983 121.056 701.588 126.077 694.616 129.646C687.644 133.215 679.386 135 669.841 135Z" fill="#1A4E8A"></path>
  <rect width="179" height="179" fill="#1A4E8A"></rect>
  <path d="M43.5651 96.1887L30.2842 109.47V149.312H70.127L83.4079 136.032H43.5651V96.1887ZM136.532 136.032H96.6889L109.97 149.312H149.813V109.47L136.532 96.1887V136.032ZM109.97 29.7841L96.6889 43.065H136.532V82.9078L149.813 69.6269V29.7841H109.97ZM43.5651 43.065H83.4079L70.127 29.7841H30.2842V69.6269L43.5651 82.9078V43.065ZM56.3078 75.7291L67.0797 86.5009C68.4441 76.1385 76.6386 67.944 87.0011 66.5795L76.2292 55.8077C67.2085 59.507 60.0071 66.7084 56.3078 75.7291ZM123.789 103.367L113.017 92.5956C111.653 102.958 103.458 111.153 93.0957 112.517L103.868 123.289C112.888 119.59 120.09 112.388 123.789 103.367ZM67.0721 92.6032L56.3003 103.375C59.9995 112.396 67.2009 119.597 76.2217 123.296L86.9935 112.525C76.631 111.16 68.4365 102.966 67.0721 92.6032ZM123.789 75.7291C120.09 66.7084 112.888 59.507 103.868 55.8077L93.0957 66.5795C103.458 67.944 111.653 76.1385 113.017 86.5009L123.789 75.7291Z" fill="white"></path>
</svg>
