<?xml version="1.0" encoding="utf-8"?>
<!-- Generator: Adobe Illustrator 22.0.1, SVG Export Plug-In . SVG Version: 6.00 Build 0)  -->
<svg version="1.1" id="Layer_1" xmlns="http://www.w3.org/2000/svg" xmlns:xlink="http://www.w3.org/1999/xlink" x="0px" y="0px"
	 viewBox="0 0 610.6 83.4" style="enable-background:new 0 0 610.6 83.4;" xml:space="preserve">
<style type="text/css">
	.st0{opacity:0.22;fill:#5FCAE9;}
	.st1{opacity:0.22;fill:#E80E72;}
	.st2{opacity:0.22;fill:#FFDE0C;}
</style>
<symbol  id="New_Symbol_1" viewBox="-21.3 -18.5 42.7 36.9">
	<polygon class="st0" points="10.7,18.5 -10.7,18.5 -21.3,0 -10.7,-18.5 10.7,-18.5 21.3,0 	"/>
</symbol>
<symbol  id="New_Symbol_2" viewBox="-21.3 -18.5 42.7 36.9">
	<polygon class="st1" points="10.7,18.5 -10.7,18.5 -21.3,0 -10.7,-18.5 10.7,-18.5 21.3,0 	"/>
</symbol>
<symbol  id="New_Symbol_3" viewBox="-21.3 -18.5 42.7 36.9">
	<polygon class="st2" points="10.7,18.5 -10.7,18.5 -21.3,0 -10.7,-18.5 10.7,-18.5 21.3,0 	"/>
</symbol>
<g>
	<g>
		
			<use xlink:href="#New_Symbol_2"  width="42.7" height="36.9" x="-21.3" y="-18.5" transform="matrix(1 0 0 -1 -34.658 92.799)" style="overflow:visible;"/>
		
			<use xlink:href="#New_Symbol_2"  width="42.7" height="36.9" x="-21.3" y="-18.5" transform="matrix(1 0 0 -1 -35.2781 88.559)" style="overflow:visible;"/>
		
			<use xlink:href="#New_Symbol_2"  width="42.7" height="36.9" x="-21.3" y="-18.5" transform="matrix(1 0 0 -1 53.7992 2.9688)" style="overflow:visible;"/>
		
			<use xlink:href="#New_Symbol_2"  width="42.7" height="36.9" x="-21.3" y="-18.5" transform="matrix(1 0 0 -1 69.7603 20.2082)" style="overflow:visible;opacity:0.6233;"/>
		
			<use xlink:href="#New_Symbol_2"  width="42.7" height="36.9" x="-21.3" y="-18.5" transform="matrix(1 0 0 -1 -29.419 31.5293)" style="overflow:visible;"/>
		
			<use xlink:href="#New_Symbol_2"  width="42.7" height="36.9" x="-21.3" y="-18.5" transform="matrix(1 0 0 -1 -26.7894 26.1882)" style="overflow:visible;"/>
		
			<use xlink:href="#New_Symbol_2"  width="42.7" height="36.9" x="-21.3" y="-18.5" transform="matrix(1 0 0 -1 -1.1623 -14.6468)" style="overflow:visible;"/>
		
			<use xlink:href="#New_Symbol_2"  width="42.7" height="36.9" x="-21.3" y="-18.5" transform="matrix(1 0 0 -1 -27.5001 50.1571)" style="overflow:visible;"/>
		
			<use xlink:href="#New_Symbol_2"  width="42.7" height="36.9" x="-21.3" y="-18.5" transform="matrix(1 0 0 -1 -23.6288 46.8518)" style="overflow:visible;"/>
		
			<use xlink:href="#New_Symbol_2"  width="42.7" height="36.9" x="-21.3" y="-18.5" transform="matrix(1 0 0 -1 10.1757 6.3502)" style="overflow:visible;"/>
		
			<use xlink:href="#New_Symbol_2"  width="42.7" height="36.9" x="-21.3" y="-18.5" transform="matrix(1 0 0 -1 4.3837 65.4749)" style="overflow:visible;"/>
		
			<use xlink:href="#New_Symbol_2"  width="42.7" height="36.9" x="-21.3" y="-18.5" transform="matrix(1 0 0 -1 42.8311 18.9876)" style="overflow:visible;opacity:0.8883;"/>
		
			<use xlink:href="#New_Symbol_2"  width="42.7" height="36.9" x="-21.3" y="-18.5" transform="matrix(1 0 0 -1 80.6282 83.0233)" style="overflow:visible;"/>
		
			<use xlink:href="#New_Symbol_2"  width="42.7" height="36.9" x="-21.3" y="-18.5" transform="matrix(1 0 0 -1 34.9598 83.1249)" style="overflow:visible;"/>
		
			<use xlink:href="#New_Symbol_2"  width="42.7" height="36.9" x="-21.3" y="-18.5" transform="matrix(1 0 0 -1 85.402 62.6891)" style="overflow:visible;"/>
		
			<use xlink:href="#New_Symbol_2"  width="42.7" height="36.9" x="-21.3" y="-18.5" transform="matrix(1 0 0 -1 65.8552 52.8346)" style="overflow:visible;opacity:0.8345;"/>
		
			<use xlink:href="#New_Symbol_2"  width="42.7" height="36.9" x="-21.3" y="-18.5" transform="matrix(1 0 0 -1 97.2856 -52.2862)" style="overflow:visible;"/>
		
			<use xlink:href="#New_Symbol_2"  width="42.7" height="36.9" x="-21.3" y="-18.5" transform="matrix(1 0 0 -1 110.0176 57.9951)" style="overflow:visible;"/>
		
			<use xlink:href="#New_Symbol_2"  width="42.7" height="36.9" x="-21.3" y="-18.5" transform="matrix(1 0 0 -1 112.1773 -23.1077)" style="overflow:visible;"/>
		
			<use xlink:href="#New_Symbol_2"  width="42.7" height="36.9" x="-21.3" y="-18.5" transform="matrix(1 0 0 -1 154.1549 -36.8214)" style="overflow:visible;"/>
		
			<use xlink:href="#New_Symbol_2"  width="42.7" height="36.9" x="-21.3" y="-18.5" transform="matrix(1 0 0 -1 144.9363 5.3097)" style="overflow:visible;"/>
		
			<use xlink:href="#New_Symbol_2"  width="42.7" height="36.9" x="-21.3" y="-18.5" transform="matrix(1 0 0 -1 142.6627 -13.9229)" style="overflow:visible;"/>
		
			<use xlink:href="#New_Symbol_2"  width="42.7" height="36.9" x="-21.3" y="-18.5" transform="matrix(1 0 0 -1 174.6833 60.2235)" style="overflow:visible;"/>
		
			<use xlink:href="#New_Symbol_2"  width="42.7" height="36.9" x="-21.3" y="-18.5" transform="matrix(1 0 0 -1 151.0108 60.403)" style="overflow:visible;"/>
		
			<use xlink:href="#New_Symbol_2"  width="42.7" height="36.9" x="-21.3" y="-18.5" transform="matrix(1 0 0 -1 205.2923 -29.1231)" style="overflow:visible;"/>
		
			<use xlink:href="#New_Symbol_2"  width="42.7" height="36.9" x="-21.3" y="-18.5" transform="matrix(1 0 0 -1 169.0354 76.0608)" style="overflow:visible;"/>
		
			<use xlink:href="#New_Symbol_2"  width="42.7" height="36.9" x="-21.3" y="-18.5" transform="matrix(1 0 0 -1 183.1484 18.5485)" style="overflow:visible;"/>
		
			<use xlink:href="#New_Symbol_2"  width="42.7" height="36.9" x="-21.3" y="-18.5" transform="matrix(1 0 0 -1 201.5813 45.6511)" style="overflow:visible;"/>
		
			<use xlink:href="#New_Symbol_2"  width="42.7" height="36.9" x="-21.3" y="-18.5" transform="matrix(1 0 0 -1 169.1372 37.772)" style="overflow:visible;"/>
		
			<use xlink:href="#New_Symbol_2"  width="42.7" height="36.9" x="-21.3" y="-18.5" transform="matrix(1 0 0 -1 164.7246 47.326)" style="overflow:visible;"/>
		
			<use xlink:href="#New_Symbol_2"  width="42.7" height="36.9" x="-21.3" y="-18.5" transform="matrix(1 0 0 -1 221.4877 72.8564)" style="overflow:visible;"/>
		
			<use xlink:href="#New_Symbol_2"  width="42.7" height="36.9" x="-21.3" y="-18.5" transform="matrix(1 0 0 -1 227.6683 20.7085)" style="overflow:visible;"/>
		
			<use xlink:href="#New_Symbol_2"  width="42.7" height="36.9" x="-21.3" y="-18.5" transform="matrix(1 0 0 -1 251.8297 48.1718)" style="overflow:visible;"/>
		
			<use xlink:href="#New_Symbol_2"  width="42.7" height="36.9" x="-21.3" y="-18.5" transform="matrix(1 0 0 -1 140.2262 42.3148)" style="overflow:visible;"/>
		
			<use xlink:href="#New_Symbol_2"  width="42.7" height="36.9" x="-21.3" y="-18.5" transform="matrix(1 0 0 -1 149.0161 24.7923)" style="overflow:visible;"/>
		
			<use xlink:href="#New_Symbol_2"  width="42.7" height="36.9" x="-21.3" y="-18.5" transform="matrix(1 0 0 -1 129.626 101.7585)" style="overflow:visible;"/>
		
			<use xlink:href="#New_Symbol_2"  width="42.7" height="36.9" x="-21.3" y="-18.5" transform="matrix(1 0 0 -1 113.2328 28.7234)" style="overflow:visible;"/>
		
			<use xlink:href="#New_Symbol_2"  width="42.7" height="36.9" x="-21.3" y="-18.5" transform="matrix(1 0 0 -1 129.8937 85.6694)" style="overflow:visible;"/>
		
			<use xlink:href="#New_Symbol_2"  width="42.7" height="36.9" x="-21.3" y="-18.5" transform="matrix(1 0 0 -1 16.688 50.7838)" style="overflow:visible;"/>
		
			<use xlink:href="#New_Symbol_2"  width="42.7" height="36.9" x="-21.3" y="-18.5" transform="matrix(1 0 0 -1 45.4406 44.7359)" style="overflow:visible;opacity:0.858;"/>
		
			<use xlink:href="#New_Symbol_2"  width="42.7" height="36.9" x="-21.3" y="-18.5" transform="matrix(1 0 0 -1 56.4947 68.1765)" style="overflow:visible;"/>
		
			<use xlink:href="#New_Symbol_2"  width="42.7" height="36.9" x="-21.3" y="-18.5" transform="matrix(1 0 0 -1 0.9755 42.9236)" style="overflow:visible;"/>
		
			<use xlink:href="#New_Symbol_2"  width="42.7" height="36.9" x="-21.3" y="-18.5" transform="matrix(1 0 0 -1 68.7433 -20.5142)" style="overflow:visible;"/>
		
			<use xlink:href="#New_Symbol_2"  width="42.7" height="36.9" x="-21.3" y="-18.5" transform="matrix(1 0 0 -1 80.4079 9.1009)" style="overflow:visible;opacity:0.9787;"/>
		
			<use xlink:href="#New_Symbol_2"  width="42.7" height="36.9" x="-21.3" y="-18.5" transform="matrix(1 0 0 -1 64.5489 34.002)" style="overflow:visible;opacity:0.4644;"/>
		
			<use xlink:href="#New_Symbol_2"  width="42.7" height="36.9" x="-21.3" y="-18.5" transform="matrix(1 0 0 -1 76.2478 25.7147)" style="overflow:visible;opacity:0.6476;"/>
		
			<use xlink:href="#New_Symbol_2"  width="42.7" height="36.9" x="-21.3" y="-18.5" transform="matrix(1 0 0 -1 72.606 72.4441)" style="overflow:visible;"/>
		
			<use xlink:href="#New_Symbol_2"  width="42.7" height="36.9" x="-21.3" y="-18.5" transform="matrix(1 0 0 -1 28.6555 26.2734)" style="overflow:visible;"/>
		
			<use xlink:href="#New_Symbol_2"  width="42.7" height="36.9" x="-21.3" y="-18.5" transform="matrix(1 0 0 -1 66.1293 84.9008)" style="overflow:visible;"/>
		
			<use xlink:href="#New_Symbol_2"  width="42.7" height="36.9" x="-21.3" y="-18.5" transform="matrix(1 0 0 -1 83.9261 18.646)" style="overflow:visible;opacity:0.8761;"/>
		
			<use xlink:href="#New_Symbol_2"  width="42.7" height="36.9" x="-21.3" y="-18.5" transform="matrix(1 0 0 -1 85.6358 38.1248)" style="overflow:visible;opacity:0.8606;"/>
	</g>
	<g>
		
			<use xlink:href="#New_Symbol_3"  width="42.7" height="36.9" x="-21.3" y="-18.5" transform="matrix(1 0 0 -1 176.3974 101.2102)" style="overflow:visible;"/>
		
			<use xlink:href="#New_Symbol_3"  width="42.7" height="36.9" x="-21.3" y="-18.5" transform="matrix(1 0 0 -1 230.4978 79.7053)" style="overflow:visible;"/>
		
			<use xlink:href="#New_Symbol_3"  width="42.7" height="36.9" x="-21.3" y="-18.5" transform="matrix(1 0 0 -1 203.1805 69.4639)" style="overflow:visible;"/>
		
			<use xlink:href="#New_Symbol_3"  width="42.7" height="36.9" x="-21.3" y="-18.5" transform="matrix(1 0 0 -1 181.6976 55.8723)" style="overflow:visible;"/>
		
			<use xlink:href="#New_Symbol_3"  width="42.7" height="36.9" x="-21.3" y="-18.5" transform="matrix(1 0 0 -1 217.857 10.5109)" style="overflow:visible;"/>
		
			<use xlink:href="#New_Symbol_3"  width="42.7" height="36.9" x="-21.3" y="-18.5" transform="matrix(1 0 0 -1 142.003 62.3234)" style="overflow:visible;"/>
		
			<use xlink:href="#New_Symbol_3"  width="42.7" height="36.9" x="-21.3" y="-18.5" transform="matrix(1 0 0 -1 246.9845 -6.1439)" style="overflow:visible;"/>
		
			<use xlink:href="#New_Symbol_3"  width="42.7" height="36.9" x="-21.3" y="-18.5" transform="matrix(1 0 0 -1 210.4848 -33.0001)" style="overflow:visible;"/>
		
			<use xlink:href="#New_Symbol_3"  width="42.7" height="36.9" x="-21.3" y="-18.5" transform="matrix(1 0 0 -1 239.0711 16.4829)" style="overflow:visible;"/>
		
			<use xlink:href="#New_Symbol_3"  width="42.7" height="36.9" x="-21.3" y="-18.5" transform="matrix(1 0 0 -1 149.4319 62.4858)" style="overflow:visible;"/>
		
			<use xlink:href="#New_Symbol_3"  width="42.7" height="36.9" x="-21.3" y="-18.5" transform="matrix(1 0 0 -1 151.3165 49.0557)" style="overflow:visible;"/>
		
			<use xlink:href="#New_Symbol_3"  width="42.7" height="36.9" x="-21.3" y="-18.5" transform="matrix(1 0 0 -1 228.4909 -22.0945)" style="overflow:visible;"/>
		
			<use xlink:href="#New_Symbol_3"  width="42.7" height="36.9" x="-21.3" y="-18.5" transform="matrix(1 0 0 -1 245.9745 -46.2707)" style="overflow:visible;"/>
		
			<use xlink:href="#New_Symbol_3"  width="42.7" height="36.9" x="-21.3" y="-18.5" transform="matrix(1 0 0 -1 299.8344 59.7377)" style="overflow:visible;"/>
		
			<use xlink:href="#New_Symbol_3"  width="42.7" height="36.9" x="-21.3" y="-18.5" transform="matrix(1 0 0 -1 201.1754 34.809)" style="overflow:visible;"/>
		
			<use xlink:href="#New_Symbol_3"  width="42.7" height="36.9" x="-21.3" y="-18.5" transform="matrix(1 0 0 -1 316.718 -11.381)" style="overflow:visible;"/>
		
			<use xlink:href="#New_Symbol_3"  width="42.7" height="36.9" x="-21.3" y="-18.5" transform="matrix(1 0 0 -1 275.4388 -11.6111)" style="overflow:visible;"/>
		
			<use xlink:href="#New_Symbol_3"  width="42.7" height="36.9" x="-21.3" y="-18.5" transform="matrix(1 0 0 -1 393.5765 -19.597)" style="overflow:visible;"/>
		
			<use xlink:href="#New_Symbol_3"  width="42.7" height="36.9" x="-21.3" y="-18.5" transform="matrix(1 0 0 -1 324.1181 43.6085)" style="overflow:visible;"/>
		
			<use xlink:href="#New_Symbol_3"  width="42.7" height="36.9" x="-21.3" y="-18.5" transform="matrix(1 0 0 -1 333.5944 -33.0014)" style="overflow:visible;"/>
		
			<use xlink:href="#New_Symbol_3"  width="42.7" height="36.9" x="-21.3" y="-18.5" transform="matrix(1 0 0 -1 301.6367 79.5473)" style="overflow:visible;"/>
		
			<use xlink:href="#New_Symbol_3"  width="42.7" height="36.9" x="-21.3" y="-18.5" transform="matrix(1 0 0 -1 166.7471 28.0671)" style="overflow:visible;"/>
		
			<use xlink:href="#New_Symbol_3"  width="42.7" height="36.9" x="-21.3" y="-18.5" transform="matrix(1 0 0 -1 222.4773 32.9016)" style="overflow:visible;"/>
		
			<use xlink:href="#New_Symbol_3"  width="42.7" height="36.9" x="-21.3" y="-18.5" transform="matrix(1 0 0 -1 192.1459 48.1555)" style="overflow:visible;"/>
		
			<use xlink:href="#New_Symbol_3"  width="42.7" height="36.9" x="-21.3" y="-18.5" transform="matrix(1 0 0 -1 318.8018 74.8269)" style="overflow:visible;"/>
		
			<use xlink:href="#New_Symbol_3"  width="42.7" height="36.9" x="-21.3" y="-18.5" transform="matrix(1 0 0 -1 233.3486 45.9837)" style="overflow:visible;"/>
		
			<use xlink:href="#New_Symbol_3"  width="42.7" height="36.9" x="-21.3" y="-18.5" transform="matrix(1 0 0 -1 388.067 43.7256)" style="overflow:visible;opacity:0.4629;"/>
		
			<use xlink:href="#New_Symbol_3"  width="42.7" height="36.9" x="-21.3" y="-18.5" transform="matrix(1 0 0 -1 296.6523 74.1624)" style="overflow:visible;"/>
		
			<use xlink:href="#New_Symbol_3"  width="42.7" height="36.9" x="-21.3" y="-18.5" transform="matrix(1 0 0 -1 284.3321 57.3525)" style="overflow:visible;"/>
		
			<use xlink:href="#New_Symbol_3"  width="42.7" height="36.9" x="-21.3" y="-18.5" transform="matrix(1 0 0 -1 276.7033 80.2595)" style="overflow:visible;"/>
		
			<use xlink:href="#New_Symbol_3"  width="42.7" height="36.9" x="-21.3" y="-18.5" transform="matrix(1 0 0 -1 292.026 42.3049)" style="overflow:visible;"/>
		
			<use xlink:href="#New_Symbol_3"  width="42.7" height="36.9" x="-21.3" y="-18.5" transform="matrix(1 0 0 -1 309.9514 59.7258)" style="overflow:visible;"/>
		
			<use xlink:href="#New_Symbol_3"  width="42.7" height="36.9" x="-21.3" y="-18.5" transform="matrix(1 0 0 -1 266.1606 14.3804)" style="overflow:visible;"/>
		
			<use xlink:href="#New_Symbol_3"  width="42.7" height="36.9" x="-21.3" y="-18.5" transform="matrix(1 0 0 -1 314.996 88.2188)" style="overflow:visible;"/>
		
			<use xlink:href="#New_Symbol_3"  width="42.7" height="36.9" x="-21.3" y="-18.5" transform="matrix(1 0 0 -1 245.029 45.8504)" style="overflow:visible;"/>
		
			<use xlink:href="#New_Symbol_3"  width="42.7" height="36.9" x="-21.3" y="-18.5" transform="matrix(1 0 0 -1 321.0701 64.1074)" style="overflow:visible;"/>
		
			<use xlink:href="#New_Symbol_3"  width="42.7" height="36.9" x="-21.3" y="-18.5" transform="matrix(1 0 0 -1 263.063 78.543)" style="overflow:visible;"/>
		
			<use xlink:href="#New_Symbol_3"  width="42.7" height="36.9" x="-21.3" y="-18.5" transform="matrix(1 0 0 -1 346.5399 54.0186)" style="overflow:visible;"/>
		
			<use xlink:href="#New_Symbol_3"  width="42.7" height="36.9" x="-21.3" y="-18.5" transform="matrix(1 0 0 -1 240.0573 66.4342)" style="overflow:visible;"/>
		
			<use xlink:href="#New_Symbol_3"  width="42.7" height="36.9" x="-21.3" y="-18.5" transform="matrix(1 0 0 -1 374.292 71.9019)" style="overflow:visible;"/>
		
			<use xlink:href="#New_Symbol_3"  width="42.7" height="36.9" x="-21.3" y="-18.5" transform="matrix(1 0 0 -1 256.8041 59.3988)" style="overflow:visible;"/>
		
			<use xlink:href="#New_Symbol_3"  width="42.7" height="36.9" x="-21.3" y="-18.5" transform="matrix(1 0 0 -1 338.5211 3.7748)" style="overflow:visible;"/>
		
			<use xlink:href="#New_Symbol_3"  width="42.7" height="36.9" x="-21.3" y="-18.5" transform="matrix(1 0 0 -1 352.8857 76.0761)" style="overflow:visible;"/>
		
			<use xlink:href="#New_Symbol_3"  width="42.7" height="36.9" x="-21.3" y="-18.5" transform="matrix(1 0 0 -1 423.4544 68.0457)" style="overflow:visible;"/>
		
			<use xlink:href="#New_Symbol_3"  width="42.7" height="36.9" x="-21.3" y="-18.5" transform="matrix(1 0 0 -1 443.6117 70.9919)" style="overflow:visible;"/>
		
			<use xlink:href="#New_Symbol_3"  width="42.7" height="36.9" x="-21.3" y="-18.5" transform="matrix(1 0 0 -1 365.3439 51.757)" style="overflow:visible;opacity:0.8457;"/>
		
			<use xlink:href="#New_Symbol_3"  width="42.7" height="36.9" x="-21.3" y="-18.5" transform="matrix(1 0 0 -1 337.0529 68.4319)" style="overflow:visible;"/>
		
			<use xlink:href="#New_Symbol_3"  width="42.7" height="36.9" x="-21.3" y="-18.5" transform="matrix(1 0 0 -1 301.7094 22.1132)" style="overflow:visible;"/>
		
			<use xlink:href="#New_Symbol_3"  width="42.7" height="36.9" x="-21.3" y="-18.5" transform="matrix(1 0 0 -1 285.412 2.2863)" style="overflow:visible;"/>
		
			<use xlink:href="#New_Symbol_3"  width="42.7" height="36.9" x="-21.3" y="-18.5" transform="matrix(1 0 0 -1 276.2698 26.8144)" style="overflow:visible;"/>
		
			<use xlink:href="#New_Symbol_3"  width="42.7" height="36.9" x="-21.3" y="-18.5" transform="matrix(1 0 0 -1 347.4659 32.5668)" style="overflow:visible;"/>
		
			<use xlink:href="#New_Symbol_3"  width="42.7" height="36.9" x="-21.3" y="-18.5" transform="matrix(1 0 0 -1 305.526 74.8669)" style="overflow:visible;"/>
		
			<use xlink:href="#New_Symbol_3"  width="42.7" height="36.9" x="-21.3" y="-18.5" transform="matrix(1 0 0 -1 367.888 -23.6143)" style="overflow:visible;"/>
		
			<use xlink:href="#New_Symbol_3"  width="42.7" height="36.9" x="-21.3" y="-18.5" transform="matrix(1 0 0 -1 395.6595 26.3428)" style="overflow:visible;opacity:0.3684;"/>
		
			<use xlink:href="#New_Symbol_3"  width="42.7" height="36.9" x="-21.3" y="-18.5" transform="matrix(1 0 0 -1 413.5916 -13.4794)" style="overflow:visible;"/>
		
			<use xlink:href="#New_Symbol_3"  width="42.7" height="36.9" x="-21.3" y="-18.5" transform="matrix(1 0 0 -1 426.9386 42.8427)" style="overflow:visible;opacity:0.9913;"/>
		
			<use xlink:href="#New_Symbol_3"  width="42.7" height="36.9" x="-21.3" y="-18.5" transform="matrix(1 0 0 -1 443.3581 -10.1055)" style="overflow:visible;"/>
		
			<use xlink:href="#New_Symbol_3"  width="42.7" height="36.9" x="-21.3" y="-18.5" transform="matrix(1 0 0 -1 474.4164 80.5865)" style="overflow:visible;"/>
		
			<use xlink:href="#New_Symbol_3"  width="42.7" height="36.9" x="-21.3" y="-18.5" transform="matrix(1 0 0 -1 457.5131 13.3723)" style="overflow:visible;"/>
		
			<use xlink:href="#New_Symbol_3"  width="42.7" height="36.9" x="-21.3" y="-18.5" transform="matrix(1 0 0 -1 467.872 65.7622)" style="overflow:visible;"/>
		
			<use xlink:href="#New_Symbol_3"  width="42.7" height="36.9" x="-21.3" y="-18.5" transform="matrix(1 0 0 -1 489.4398 19.4693)" style="overflow:visible;"/>
		
			<use xlink:href="#New_Symbol_3"  width="42.7" height="36.9" x="-21.3" y="-18.5" transform="matrix(1 0 0 -1 498.618 58.863)" style="overflow:visible;"/>
		
			<use xlink:href="#New_Symbol_3"  width="42.7" height="36.9" x="-21.3" y="-18.5" transform="matrix(1 0 0 -1 480.129 64.9813)" style="overflow:visible;"/>
		
			<use xlink:href="#New_Symbol_3"  width="42.7" height="36.9" x="-21.3" y="-18.5" transform="matrix(1 0 0 -1 482.5865 96.2577)" style="overflow:visible;"/>
		
			<use xlink:href="#New_Symbol_3"  width="42.7" height="36.9" x="-21.3" y="-18.5" transform="matrix(1 0 0 -1 442.6567 -22.511)" style="overflow:visible;"/>
	</g>
	<g>
		
			<use xlink:href="#New_Symbol_1"  width="42.7" height="36.9" x="-21.3" y="-18.5" transform="matrix(1 0 0 -1 478.3795 87.5923)" style="overflow:visible;"/>
		
			<use xlink:href="#New_Symbol_1"  width="42.7" height="36.9" x="-21.3" y="-18.5" transform="matrix(1 0 0 -1 451.8326 79.095)" style="overflow:visible;"/>
		
			<use xlink:href="#New_Symbol_1"  width="42.7" height="36.9" x="-21.3" y="-18.5" transform="matrix(1 0 0 -1 452.4692 24.1467)" style="overflow:visible;opacity:0.5409;"/>
		
			<use xlink:href="#New_Symbol_1"  width="42.7" height="36.9" x="-21.3" y="-18.5" transform="matrix(1 0 0 -1 446.8852 53.3947)" style="overflow:visible;opacity:0.5834;"/>
		
			<use xlink:href="#New_Symbol_1"  width="42.7" height="36.9" x="-21.3" y="-18.5" transform="matrix(1 0 0 -1 374.031 59.4222)" style="overflow:visible;"/>
		
			<use xlink:href="#New_Symbol_1"  width="42.7" height="36.9" x="-21.3" y="-18.5" transform="matrix(1 0 0 -1 383.226 36.6826)" style="overflow:visible;"/>
		
			<use xlink:href="#New_Symbol_1"  width="42.7" height="36.9" x="-21.3" y="-18.5" transform="matrix(1 0 0 -1 380.271 28.0051)" style="overflow:visible;"/>
		
			<use xlink:href="#New_Symbol_1"  width="42.7" height="36.9" x="-21.3" y="-18.5" transform="matrix(1 0 0 -1 377.2661 17.0679)" style="overflow:visible;"/>
		
			<use xlink:href="#New_Symbol_1"  width="42.7" height="36.9" x="-21.3" y="-18.5" transform="matrix(1 0 0 -1 405.6152 31.5261)" style="overflow:visible;"/>
		
			<use xlink:href="#New_Symbol_1"  width="42.7" height="36.9" x="-21.3" y="-18.5" transform="matrix(1 0 0 -1 381.9953 12.1471)" style="overflow:visible;"/>
		
			<use xlink:href="#New_Symbol_1"  width="42.7" height="36.9" x="-21.3" y="-18.5" transform="matrix(1 0 0 -1 425.9688 -12.9233)" style="overflow:visible;"/>
		
			<use xlink:href="#New_Symbol_1"  width="42.7" height="36.9" x="-21.3" y="-18.5" transform="matrix(1 0 0 -1 392.8387 2.7127)" style="overflow:visible;"/>
		
			<use xlink:href="#New_Symbol_1"  width="42.7" height="36.9" x="-21.3" y="-18.5" transform="matrix(1 0 0 -1 440.5338 40.1366)" style="overflow:visible;opacity:0.6041;"/>
		
			<use xlink:href="#New_Symbol_1"  width="42.7" height="36.9" x="-21.3" y="-18.5" transform="matrix(1 0 0 -1 482.5402 28.627)" style="overflow:visible;opacity:0.6225;"/>
		
			<use xlink:href="#New_Symbol_1"  width="42.7" height="36.9" x="-21.3" y="-18.5" transform="matrix(1 0 0 -1 464.1307 27.8301)" style="overflow:visible;opacity:0.4391;"/>
		
			<use xlink:href="#New_Symbol_1"  width="42.7" height="36.9" x="-21.3" y="-18.5" transform="matrix(1 0 0 -1 522.2247 43.7912)" style="overflow:visible;"/>
		
			<use xlink:href="#New_Symbol_1"  width="42.7" height="36.9" x="-21.3" y="-18.5" transform="matrix(1 0 0 -1 482.3188 40.4806)" style="overflow:visible;opacity:0.567;"/>
		
			<use xlink:href="#New_Symbol_1"  width="42.7" height="36.9" x="-21.3" y="-18.5" transform="matrix(1 0 0 -1 530.1208 21.5103)" style="overflow:visible;"/>
		
			<use xlink:href="#New_Symbol_1"  width="42.7" height="36.9" x="-21.3" y="-18.5" transform="matrix(1 0 0 -1 512.2562 66.6501)" style="overflow:visible;"/>
		
			<use xlink:href="#New_Symbol_1"  width="42.7" height="36.9" x="-21.3" y="-18.5" transform="matrix(1 0 0 -1 498.7047 52.6207)" style="overflow:visible;opacity:0.9937;"/>
		
			<use xlink:href="#New_Symbol_1"  width="42.7" height="36.9" x="-21.3" y="-18.5" transform="matrix(1 0 0 -1 571.2358 47.0367)" style="overflow:visible;"/>
		
			<use xlink:href="#New_Symbol_1"  width="42.7" height="36.9" x="-21.3" y="-18.5" transform="matrix(1 0 0 -1 543.0433 -12.4376)" style="overflow:visible;"/>
		
			<use xlink:href="#New_Symbol_1"  width="42.7" height="36.9" x="-21.3" y="-18.5" transform="matrix(1 0 0 -1 571.3862 0.7156)" style="overflow:visible;"/>
		
			<use xlink:href="#New_Symbol_1"  width="42.7" height="36.9" x="-21.3" y="-18.5" transform="matrix(1 0 0 -1 504.4963 28.8777)" style="overflow:visible;"/>
		
			<use xlink:href="#New_Symbol_1"  width="42.7" height="36.9" x="-21.3" y="-18.5" transform="matrix(1 0 0 -1 541.3264 60.777)" style="overflow:visible;"/>
		
			<use xlink:href="#New_Symbol_1"  width="42.7" height="36.9" x="-21.3" y="-18.5" transform="matrix(1 0 0 -1 483.812 4.9711)" style="overflow:visible;"/>
		
			<use xlink:href="#New_Symbol_1"  width="42.7" height="36.9" x="-21.3" y="-18.5" transform="matrix(1 0 0 -1 577.5842 31.6861)" style="overflow:visible;"/>
		
			<use xlink:href="#New_Symbol_1"  width="42.7" height="36.9" x="-21.3" y="-18.5" transform="matrix(1 0 0 -1 554.5075 29.3972)" style="overflow:visible;"/>
		
			<use xlink:href="#New_Symbol_1"  width="42.7" height="36.9" x="-21.3" y="-18.5" transform="matrix(1 0 0 -1 597.1819 -28.4388)" style="overflow:visible;"/>
		
			<use xlink:href="#New_Symbol_1"  width="42.7" height="36.9" x="-21.3" y="-18.5" transform="matrix(1 0 0 -1 608.6981 51.6427)" style="overflow:visible;"/>
		
			<use xlink:href="#New_Symbol_1"  width="42.7" height="36.9" x="-21.3" y="-18.5" transform="matrix(1 0 0 -1 605.0662 -6.6146)" style="overflow:visible;"/>
		
			<use xlink:href="#New_Symbol_1"  width="42.7" height="36.9" x="-21.3" y="-18.5" transform="matrix(1 0 0 -1 624.614 76.002)" style="overflow:visible;"/>
		
			<use xlink:href="#New_Symbol_1"  width="42.7" height="36.9" x="-21.3" y="-18.5" transform="matrix(1 0 0 -1 515.0743 25.3255)" style="overflow:visible;"/>
		
			<use xlink:href="#New_Symbol_1"  width="42.7" height="36.9" x="-21.3" y="-18.5" transform="matrix(1 0 0 -1 610.6143 16.4513)" style="overflow:visible;"/>
		
			<use xlink:href="#New_Symbol_1"  width="42.7" height="36.9" x="-21.3" y="-18.5" transform="matrix(1 0 0 -1 571.7479 65.6503)" style="overflow:visible;"/>
		
			<use xlink:href="#New_Symbol_1"  width="42.7" height="36.9" x="-21.3" y="-18.5" transform="matrix(1 0 0 -1 621.0628 23.7319)" style="overflow:visible;"/>
		
			<use xlink:href="#New_Symbol_1"  width="42.7" height="36.9" x="-21.3" y="-18.5" transform="matrix(1 0 0 -1 598.5934 48.8295)" style="overflow:visible;"/>
		
			<use xlink:href="#New_Symbol_1"  width="42.7" height="36.9" x="-21.3" y="-18.5" transform="matrix(1 0 0 -1 650.5704 31.9249)" style="overflow:visible;"/>
		
			<use xlink:href="#New_Symbol_1"  width="42.7" height="36.9" x="-21.3" y="-18.5" transform="matrix(1 0 0 -1 607.7885 39.201)" style="overflow:visible;"/>
		
			<use xlink:href="#New_Symbol_1"  width="42.7" height="36.9" x="-21.3" y="-18.5" transform="matrix(1 0 0 -1 649.6022 -16.2711)" style="overflow:visible;"/>
		
			<use xlink:href="#New_Symbol_1"  width="42.7" height="36.9" x="-21.3" y="-18.5" transform="matrix(1 0 0 -1 541.4742 42.9001)" style="overflow:visible;"/>
		
			<use xlink:href="#New_Symbol_1"  width="42.7" height="36.9" x="-21.3" y="-18.5" transform="matrix(1 0 0 -1 562.3249 4.8451)" style="overflow:visible;"/>
		
			<use xlink:href="#New_Symbol_1"  width="42.7" height="36.9" x="-21.3" y="-18.5" transform="matrix(1 0 0 -1 501.593 -26.0536)" style="overflow:visible;"/>
		
			<use xlink:href="#New_Symbol_1"  width="42.7" height="36.9" x="-21.3" y="-18.5" transform="matrix(1 0 0 -1 428.8515 28.5989)" style="overflow:visible;opacity:0.906;"/>
		
			<use xlink:href="#New_Symbol_1"  width="42.7" height="36.9" x="-21.3" y="-18.5" transform="matrix(1 0 0 -1 421.0181 47.7387)" style="overflow:visible;"/>
		
			<use xlink:href="#New_Symbol_1"  width="42.7" height="36.9" x="-21.3" y="-18.5" transform="matrix(1 0 0 -1 413.7874 8.8253)" style="overflow:visible;"/>
		
			<use xlink:href="#New_Symbol_1"  width="42.7" height="36.9" x="-21.3" y="-18.5" transform="matrix(1 0 0 -1 462.9644 35.669)" style="overflow:visible;opacity:0.3377;"/>
		
			<use xlink:href="#New_Symbol_1"  width="42.7" height="36.9" x="-21.3" y="-18.5" transform="matrix(1 0 0 -1 406.7592 -12.0392)" style="overflow:visible;"/>
		
			<use xlink:href="#New_Symbol_1"  width="42.7" height="36.9" x="-21.3" y="-18.5" transform="matrix(1 0 0 -1 463.3656 -30.8246)" style="overflow:visible;"/>
	</g>
</g>
</svg>
