<?xml version="1.0" encoding="utf-8"?><svg xmlns="http://www.w3.org/2000/svg" xmlns:xlink="http://www.w3.org/1999/xlink"><symbol viewBox="0 0 128 128" id="angularjs-original" xmlns="http://www.w3.org/2000/svg"><path fill="#B3B3B3" d="M63.81 1.026L4.553 21.88l9.363 77.637 49.957 27.457 50.214-27.828 9.36-77.635z"/><path fill="#A6120D" d="M117.536 25.998L63.672 7.629v112.785l45.141-24.983z"/><path fill="#DD1B16" d="M11.201 26.329l8.026 69.434 44.444 24.651V7.627z"/><path fill="#F2F2F2" d="M78.499 67.67l-14.827 6.934H48.044l-7.347 18.374-13.663.254 36.638-81.508L78.499 67.67zm-1.434-3.491L63.77 37.858 52.864 63.726h10.807l13.394.453z"/><path fill="#B3B3B3" d="M63.671 11.724l.098 26.134 12.375 25.888H63.698l-.027 10.841 17.209.017 8.042 18.63 13.074.242z"/></symbol><symbol viewBox="0 0 128 128" id="apple-original" xmlns="http://www.w3.org/2000/svg"><path d="M97.905 67.885c.174 18.8 16.494 25.057 16.674 25.137-.138.44-2.607 8.916-8.597 17.669-5.178 7.568-10.553 15.108-19.018 15.266-8.318.152-10.993-4.934-20.504-4.934-9.508 0-12.479 4.776-20.354 5.086-8.172.31-14.395-8.185-19.616-15.724C15.822 94.961 7.669 66.8 18.616 47.791c5.438-9.44 15.158-15.417 25.707-15.571 8.024-.153 15.598 5.398 20.503 5.398 4.902 0 14.106-6.676 23.782-5.696 4.051.169 15.421 1.636 22.722 12.324-.587.365-13.566 7.921-13.425 23.639M82.272 21.719c4.338-5.251 7.258-12.563 6.462-19.836-6.254.251-13.816 4.167-18.301 9.416-4.02 4.647-7.54 12.087-6.591 19.216 6.971.54 14.091-3.542 18.43-8.796"/></symbol><symbol viewBox="0 0 640 512" id="autoprefixer" xmlns="http://www.w3.org/2000/svg"><path d="M318.4 16l-161 480h77.5l25.4-81.4h119.5L405 496h77.5L318.4 16zm-40.3 341.9l41.2-130.4h1.5l40.9 130.4h-83.6zM640 405l-10-31.4L462.1 358l19.4 56.5L640 405zm-462.1-47L10 373.7 0 405l158.5 9.4 19.4-56.4z"/></symbol><symbol viewBox="0 0 128 128" id="css3-original" xmlns="http://www.w3.org/2000/svg"><path fill="#1572B6" d="M18.814 114.123L8.76 1.352h110.48l-10.064 112.754-45.243 12.543-45.119-12.526z"/><path fill="#33A9DC" d="M64.001 117.062l36.559-10.136 8.601-96.354h-45.16v106.49z"/><path fill="#fff" d="M64.001 51.429h18.302l1.264-14.163H64.001V23.435h34.682l-.332 3.711-3.4 38.114h-30.95V51.429z"/><path fill="#EBEBEB" d="M64.083 87.349l-.061.018-15.403-4.159-.985-11.031H33.752l1.937 21.717 28.331 7.863.063-.018v-14.39z"/><path fill="#fff" d="M81.127 64.675l-1.666 18.522-15.426 4.164v14.39l28.354-7.858.208-2.337 2.406-26.881H81.127z"/><path fill="#EBEBEB" d="M64.048 23.435v13.831H30.64l-.277-3.108-.63-7.012-.331-3.711h34.646zm-.047 27.996v13.831H48.792l-.277-3.108-.631-7.012-.33-3.711h16.447z"/></symbol><symbol id="facebook-original" viewBox="0 0 128 128" xmlns="http://www.w3.org/2000/svg"><defs><style>.ecls-1{fill:#3d5a98}.ecls-2{fill:#fff}</style></defs><title>facebook</title><g id="eoriginal"><rect id="eBlue" class="ecls-1" x="4.83" y="4.83" width="118.35" height="118.35" rx="6.53" ry="6.53"/><path id="ef" class="ecls-2" d="M86.48 123.17V77.34h15.38l2.3-17.86H86.48v-11.4c0-5.17 1.44-8.7 8.85-8.7h9.46v-16A126.56 126.56 0 0 0 91 22.7c-13.62 0-23 8.3-23 23.61v13.17H52.62v17.86H68v45.83z"/></g></symbol><symbol viewBox="0 0 128 128" id="git-original" xmlns="http://www.w3.org/2000/svg"><path fill="#F34F29" d="M124.737 58.378L69.621 3.264c-3.172-3.174-8.32-3.174-11.497 0L46.68 14.71l14.518 14.518c3.375-1.139 7.243-.375 9.932 2.314 2.703 2.706 3.461 6.607 2.294 9.993l13.992 13.993c3.385-1.167 7.292-.413 9.994 2.295 3.78 3.777 3.78 9.9 0 13.679a9.673 9.673 0 0 1-13.683 0 9.677 9.677 0 0 1-2.105-10.521L68.574 47.933l-.002 34.341a9.708 9.708 0 0 1 2.559 1.828c3.778 3.777 3.778 9.898 0 13.683-3.779 3.777-9.904 3.777-13.679 0-3.778-3.784-3.778-9.905 0-13.683a9.65 9.65 0 0 1 3.167-2.11V47.333a9.581 9.581 0 0 1-3.167-2.111c-2.862-2.86-3.551-7.06-2.083-10.576L41.056 20.333 3.264 58.123a8.133 8.133 0 0 0 0 11.5l55.117 55.114c3.174 3.174 8.32 3.174 11.499 0l54.858-54.858a8.135 8.135 0 0 0-.001-11.501z"/></symbol><symbol viewBox="0 0 128 128" id="handlebars-original" xmlns="http://www.w3.org/2000/svg"><title>Artboard 7</title><path d="M14.59 62.67a7.14 7.14 0 0 0 2.31-3.48c.46-2 .36-3.94-2.31-5.3C7.82 50.47 3.45 56.57 2.77 58s-1.74 3.68-1 8.84 3.19 9.9 11 11.73a32.89 32.89 0 0 0 22-2.57c6.84-3.26 19.7-9 22.94-9.58a28.15 28.15 0 0 1 6.49-.81v-7.85a18 18 0 0 0-17.38-9.15C34.43 49.59 29.51 56 26.49 58.7s-8.61 9.17-12.37 8-4.81-5.7-3.48-7.14 2.37-1.18 3.18 0a6.24 6.24 0 0 1 .77 3.11z"/><path d="M113.41 62.67a7.14 7.14 0 0 1-2.31-3.48c-.46-2-.36-3.94 2.31-5.3 6.76-3.43 11.13 2.67 11.81 4.11s1.74 3.68 1 8.84-3.19 9.9-11 11.73A32.89 32.89 0 0 1 93.23 76c-6.84-3.26-19.7-9-22.94-9.58a28.15 28.15 0 0 0-6.49-.81v-7.85a18 18 0 0 1 17.38-9.15c12.39 1 17.32 7.38 20.34 10.08s8.61 9.17 12.37 8 4.81-5.76 3.48-7.19-2.37-1.18-3.18 0a6.24 6.24 0 0 0-.78 3.17z"/></symbol><symbol viewBox="0 0 128 128" id="html5-original" xmlns="http://www.w3.org/2000/svg"><path fill="#E44D26" d="M19.037 113.876L9.032 1.661h109.936l-10.016 112.198-45.019 12.48z"/><path fill="#F16529" d="M64 116.8l36.378-10.086 8.559-95.878H64z"/><path fill="#EBEBEB" d="M64 52.455H45.788L44.53 38.361H64V24.599H29.489l.33 3.692 3.382 37.927H64zm0 35.743l-.061.017-15.327-4.14-.979-10.975H33.816l1.928 21.609 28.193 7.826.063-.017z"/><path fill="#fff" d="M63.952 52.455v13.763h16.947l-1.597 17.849-15.35 4.143v14.319l28.215-7.82.207-2.325 3.234-36.233.335-3.696h-3.708zm0-27.856v13.762h33.244l.276-3.092.628-6.978.329-3.692z"/></symbol><symbol viewBox="0 0 128 128" id="illustrator-line" xmlns="http://www.w3.org/2000/svg"><path fill-rule="evenodd" clip-rule="evenodd" fill="#FAA625" d="M1 1v125.792c1 .082.99.235 1.359.235 36.269.011 72.665.011 108.934.011 4.994 0 9.859.004 14.854-.011.328-.001.854-.153.854-.235L127 1H1zm114 62.914v48.551c0 1.688-.253 1.535-1.88 1.535H15.771c-1.627 0-1.771.154-1.771-1.534V15.24c0-1.689.144-2.24 1.894-2.24h97.103c1.751 0 2.003.551 2.003 2.363v48.551zM64.414 40.368c-.214-.662-.612-.696-1.193-.693-3.114.019-6.229.069-9.341 0-.984-.021-1.411.274-1.715 1.233-4.385 13.785-8.817 27.561-13.233 41.336-.72 2.246-1.417 4.501-2.185 6.939 2.911 0 5.571-.04 8.229.026.903.022 1.279-.275 1.525-1.126 1.138-3.924 2.37-7.821 3.497-11.748.265-.926.694-1.176 1.625-1.165 4.424.052 8.85.052 13.274 0 .861-.01 1.211.268 1.455 1.062 1.213 3.949 2.502 7.874 3.714 11.823.251.816.566 1.13 1.507 1.062a54.147 54.147 0 0 1 3.93-.117h4.592l-.021-.331c-5.222-16.107-10.451-32.19-15.66-48.301zM52.001 68c2.037-7 4.059-13.848 6.051-20.644C60.105 54.128 62.193 61 64.312 68H52.001zM82 89h10V53H82v36zm5.071-50.445c-2.963.003-5.151 2.107-5.131 4.936.02 2.837 2.122 4.857 5.057 4.862 3.051.004 5.208-2.015 5.187-4.856-.022-2.91-2.127-4.945-5.113-4.942z"/></symbol><symbol viewBox="0 0 128 128" id="javascript-plain" xmlns="http://www.w3.org/2000/svg"><path fill="#F0DB4F" d="M2 1v125h125V1H2zm66.119 106.513c-1.845 3.749-5.367 6.212-9.448 7.401-6.271 1.44-12.269.619-16.731-2.059-2.986-1.832-5.318-4.652-6.901-7.901l9.52-5.83c.083.035.333.487.667 1.071 1.214 2.034 2.261 3.474 4.319 4.485 2.022.69 6.461 1.131 8.175-2.427 1.047-1.81.714-7.628.714-14.065C58.433 78.073 58.48 68 58.48 58h11.709c0 11 .06 21.418 0 32.152.025 6.58.596 12.446-2.07 17.361zm48.574-3.308c-4.07 13.922-26.762 14.374-35.83 5.176-1.916-2.165-3.117-3.296-4.26-5.795 4.819-2.772 4.819-2.772 9.508-5.485 2.547 3.915 4.902 6.068 9.139 6.949 5.748.702 11.531-1.273 10.234-7.378-1.333-4.986-11.77-6.199-18.873-11.531-7.211-4.843-8.901-16.611-2.975-23.335 1.975-2.487 5.343-4.343 8.877-5.235l3.688-.477c7.081-.143 11.507 1.727 14.756 5.355.904.916 1.642 1.904 3.022 4.045-3.772 2.404-3.76 2.381-9.163 5.879-1.154-2.486-3.069-4.046-5.093-4.724-3.142-.952-7.104.083-7.926 3.403-.285 1.023-.226 1.975.227 3.665 1.273 2.903 5.545 4.165 9.377 5.926 11.031 4.474 14.756 9.271 15.672 14.981.882 4.916-.213 8.105-.38 8.581z"/></symbol><symbol viewBox="0 0 128 128" id="jquery-original-wordmark" xmlns="http://www.w3.org/2000/svg"><path fill="#0868AC" d="M27.758 20.421c-7.352 10.565-6.437 24.312-.82 35.54l.411.798.263.506.164.291.293.524c.174.307.353.612.536.919l.306.504c.203.326.41.65.622.973l.265.409c.293.437.592.872.901 1.301l.026.033.152.205c.267.368.542.732.821 1.093l.309.393c.249.313.502.623.759.934l.29.346c.345.406.698.812 1.057 1.208l.021.022.041.045c.351.383.71.758 1.075 1.133l.344.347c.282.284.569.563.858.841l.351.334c.387.364.777.722 1.176 1.07l.018.016.205.174c.351.305.708.605 1.068.902l.442.353c.294.235.591.468.89.696l.477.361c.33.243.663.482.999.717l.363.258.101.072c.318.22.645.431.97.642l.42.28c.5.315 1.007.628 1.519.93l.42.237c.377.217.756.431 1.14.639l.631.326.816.424.188.091.334.161c.427.204.858.405 1.293.599l.273.122c.498.218 1.001.427 1.508.628l.368.144c.469.182.945.359 1.423.527l.179.062c.524.184 1.054.353 1.587.52l.383.114c.542.164 1.079.358 1.638.462 35.553 6.483 45.88-21.364 45.88-21.364-8.674 11.3-24.069 14.28-38.656 10.962-.553-.125-1.089-.298-1.628-.456l-.406-.124a44.793 44.793 0 0 1-1.568-.51l-.215-.077a49.537 49.537 0 0 1-1.382-.513l-.388-.152c-.501-.198-1-.405-1.492-.62l-.298-.133a55.398 55.398 0 0 1-1.259-.585l-.364-.175c-.327-.159-.65-.328-.974-.495l-.649-.341c-.395-.21-.782-.43-1.167-.654l-.394-.219a58.203 58.203 0 0 1-1.52-.932l-.41-.273a40.515 40.515 0 0 1-1.081-.719l-.349-.245a54.203 54.203 0 0 1-1.022-.738l-.453-.343c-.31-.237-.618-.476-.922-.721l-.411-.33c-.388-.318-.771-.64-1.149-.969l-.126-.105a54.797 54.797 0 0 1-1.208-1.098l-.34-.328a33.158 33.158 0 0 1-.868-.851l-.34-.34c-.362-.37-.717-.745-1.065-1.126l-.053-.057a41.973 41.973 0 0 1-1.08-1.229l-.283-.336a44.66 44.66 0 0 1-.777-.961l-.285-.355a52.469 52.469 0 0 1-.898-1.195c-8.098-11.047-11.008-26.283-4.535-38.795m17.081-1.626c-5.316 7.65-5.028 17.893-.88 25.983a33.747 33.747 0 0 0 2.351 3.925c.796 1.143 1.68 2.501 2.737 3.418.383.422.784.834 1.193 1.238l.314.311c.397.385.801.764 1.218 1.132l.05.043.012.012c.462.405.939.794 1.423 1.178l.323.252c.486.372.981.738 1.489 1.087l.043.033.68.447.322.213c.363.233.73.459 1.104.676l.156.092c.322.185.648.367.975.545l.347.18.682.354.103.047c.469.23.941.453 1.424.663l.314.13c.386.163.775.323 1.167.473l.5.184c.356.132.712.253 1.072.373l.484.155c.511.158 1.017.359 1.549.448 27.45 4.547 33.787-16.588 33.787-16.588-5.712 8.228-16.775 12.153-28.58 9.089a34.726 34.726 0 0 1-1.555-.449l-.467-.151a29 29 0 0 1-1.087-.374l-.491-.183a38.673 38.673 0 0 1-1.171-.473l-.315-.133a32.78 32.78 0 0 1-1.432-.666l-.718-.365-.414-.213c-.306-.166-.61-.338-.909-.514l-.217-.123a30.75 30.75 0 0 1-1.1-.672l-.332-.221-.712-.472a37.364 37.364 0 0 1-1.484-1.085l-.334-.264c-5.167-4.079-9.263-9.655-11.21-15.977-2.041-6.557-1.601-13.917 1.935-19.891m14.847-.518c-3.134 4.612-3.442 10.341-1.267 15.435 2.293 5.407 6.992 9.648 12.477 11.66l.682.235.3.096c.323.102.644.22.978.282 15.157 2.929 19.268-7.777 20.362-9.354-3.601 5.185-9.653 6.43-17.079 4.627a18.837 18.837 0 0 1-1.796-.555 22.303 22.303 0 0 1-2.134-.886 22.19 22.19 0 0 1-3.741-2.282c-6.645-5.042-10.772-14.659-6.436-22.492"/><path fill="#131B28" d="M66.359 96.295h-4.226a.556.556 0 0 0-.517.417l-1.5 6.94-1.5 6.94a.554.554 0 0 1-.516.417h-2.991c-2.959 0-2.617-2.047-2.011-4.851l.018-.085.066-.354.012-.066.135-.72.145-.771.154-.785.682-3.332.683-3.332a.336.336 0 0 0-.341-.419h-4.337a.55.55 0 0 0-.514.418l-.933 4.424-.932 4.425-.002.006-.086.412c-1.074 4.903-.79 9.58 5.048 9.727l.17.003h9.163a.554.554 0 0 0 .516-.417l1.976-9.289 1.976-9.29c.049-.23-.103-.417-.338-.418zm-45.256-.049h-4.64a.562.562 0 0 0-.521.416l-.44 1.942-.44 1.942c-.051.229.098.416.333.416h4.676a.556.556 0 0 0 .518-.417l.425-1.941.425-1.941c.049-.229-.101-.417-.336-.417zm-1.346 6.044H15.08a.563.563 0 0 0-.521.416l-.657 2.91-.656 2.909-.183.834-.631 2.97-.63 2.971c-.049.229-.15.599-.225.821 0 0-.874 2.6-2.343 2.57l-.184-.004-1.271-.023h-.001a.558.558 0 0 0-.524.407l-.485 2.039-.484 2.038c-.055.228.093.416.326.42.833.01 2.699.031 3.828.031 3.669 0 5.604-2.033 6.843-7.883l1.451-6.714 1.361-6.297c.049-.227-.103-.415-.337-.415zm86.117-1.574l-.194-.801-.191-.82-.097-.414c-.38-1.477-1.495-2.328-3.917-2.328l-3.77-.004-3.472-.005h-3.907a.552.552 0 0 0-.515.417l-.173.816-.204.964-.057.271-1.759 8.24-1.67 7.822c-.05.23-.066.512-.038.626.028.115.479.209.713.209h3.524c.235 0 .532-.042.66-.094s.317-.513.364-.742l.626-3.099.627-3.1.001-.005.084-.413.76-3.56.671-3.144a.555.555 0 0 1 .515-.417l11.089-.005c.235.002.383-.185.33-.414zm14.275-7.24l-.854.003h-3.549a.904.904 0 0 0-.667.353l-7.849 11.498c-.132.194-.283.166-.335-.062l-.578-2.533a.562.562 0 0 0-.522-.416h-5.045c-.235 0-.374.184-.31.409l2.261 7.921c.064.226.069.596.011.824l-.985 3.833c-.059.228.085.413.32.413h4.987a.58.58 0 0 0 .532-.413l.986-3.833a2.52 2.52 0 0 1 .363-.755l12.742-16.911c.142-.188.065-.341-.169-.339l-1.339.008zm-40.086 9.919v-.004a.514.514 0 0 1-.499.441h-6.397c-.222 0-.334-.15-.301-.336l.006-.015-.004.002.003-.021.029-.109c.611-1.624 1.855-2.69 4.194-2.69 2.634-.001 3.148 1.285 2.969 2.732zm-1.877-7.384c-8.211 0-10.157 4.984-11.249 10.015-1.091 5.128-.998 9.921 7.5 9.921h1.03l.256-.001h.06l1.02-.003h.018c2.244-.009 4.495-.026 5.406-.033a.553.553 0 0 0 .509-.42l.344-1.681.067-.327.41-2.006a.335.335 0 0 0-.341-.418h-7.639c-3.039 0-3.941-.807-3.608-3.181H84.18l-.001.001.008-.001a.503.503 0 0 0 .445-.315l.029-.106-.001.001c1.813-6.839 1.293-11.445-6.474-11.446zm-38.81 7.358l-.116.409v.001l-.922 3.268-.922 3.267a.596.596 0 0 1-.543.411h-4.88c-3.702 0-4.604-2.896-3.702-7.166.901-4.368 2.668-7.083 6.312-7.358 4.98-.376 5.976 3.126 4.773 7.168zm3.348 7.105s2.301-5.588 2.823-8.814c.713-4.319-1.45-10.585-9.804-10.585-8.306 0-11.914 5.981-13.29 12.484-1.376 6.55.427 12.293 8.686 12.246l6.516-.024 6.089-.022a.59.59 0 0 0 .534-.414l1.061-4.046c.059-.228-.084-.414-.319-.416l-1.017-.006-1.017-.006c-.199-.001-.313-.131-.289-.302l.027-.095zm41.12-3.741a.28.28 0 1 1-.56.001.28.28 0 0 1 .56-.001z"/></symbol><symbol viewBox="0 0 128 128" id="less-plain-wordmark" xmlns="http://www.w3.org/2000/svg"><path fill-rule="evenodd" clip-rule="evenodd" fill="#2A4D80" d="M122.301 58.635c-.6-1.299-.89-2.836-.952-4.283-.154-3.561-.023-7.135-.184-10.696-.144-3.189-1.282-6.063-4.344-7.707-2.696-1.447-5.821-1.591-8.821-1.625v5.691c1 .034.754.065.998.078 4.029.198 5.379 1.476 5.43 5.473.038 2.972.012 5.946.06 8.917.059 3.605.597 7.046 3.894 9.322.056.039.051.182.083.348-1.678 1.192-3.006 2.727-3.392 4.822a34.53 34.53 0 0 0-.54 5.153c-.096 3.118.003 6.243-.086 9.361-.07 2.442-1.227 3.588-3.604 4.132-.895.206-1.843.279-2.843.406v5.677c2-.12 3.017-.199 4.387-.347 5.156-.558 8.059-3.241 8.654-8.243.186-1.568.165-3.166.2-4.75.066-2.969.032-5.952.298-8.903.271-3.011 2.461-4.675 5.461-4.509v-5.951c-2 .358-3.843-.507-4.699-2.366zM28.314 70.768C28.313 59.219 28 47.67 28 36.122v-1.817c-3 0-6.226-.029-9.391.014-1.285.017-2.418.127-3.692.301-4.877.664-7.228 2.953-8.092 7.812-.25 1.402-.2 2.859-.221 4.293-.039 2.726.039 5.453-.005 8.178-.055 3.432-1.672 6.092-5.172 6.294-.124.007.573.15-.427.236v5.305c4 .628 5.273 2.243 5.539 5.959.042.592.053 1.189.059 1.784.034 3.32-.004 6.645.146 9.959.141 3.093.828 5.857 3.751 7.48C13.225 93.436 17 93.559 19 93.638v-5.664c0-.048-.21-.092-.405-.104-4.339-.265-5.317-1.443-5.343-5.785-.017-2.875.106-5.75.06-8.625-.058-3.612-.586-7.038-3.856-9.324-.05-.035-.001-.183-.017-.383 2.199-1.39 3.368-3.516 3.686-6.094.176-1.422.235-2.864.26-4.299.05-2.973-.003-5.949.078-8.92.057-2.088 1.39-3.61 3.091-3.952 1.612-.325 2.446-.315 5.446-.466v2.056c0 10.31-.367 20.619-.313 30.929.019 3.531.41 7.012 4.195 8.537 2.058.829 4.263 1.084 6.627 1.642.395-2.312.524-4.23.847-6.128-4.357-1.25-5.042-1.898-5.042-6.29zm26.674-19.893c-7.34-3.51-16.248-.441-19.666 6.921-2.574 5.544-2.482 11.25-.216 16.872 1.229 3.048 3.45 5.33 6.473 6.672 5.904 2.621 11.879 1.984 17.832.144.321-.1.731-.718.692-1.046-.203-1.661-.54-3.306-.841-5.021-1.417.357-2.601.722-3.811.949-3.197.601-6.401.6-9.512-.637-3.072-1.22-5.135-4.73-4.622-7.73h20.872c.255-3 .154-7.125-1.123-10.536-1.14-3.049-3.108-5.167-6.078-6.588zM54.944 63H41.228c.007-4 3.264-7.59 7.537-7.508 3.753.072 6.349 3.508 6.179 7.508zm56.108 12.279c.492-5.054-1.034-7.898-5.534-10.094-1.596-.779-3.29-1.356-4.916-2.078-1.217-.54-2.442-1.087-3.58-1.771-1.108-.665-1.572-1.769-1.408-3.062.161-1.277.982-2.119 2.168-2.359 1.437-.292 2.943-.542 4.388-.424 2.042.167 4.056.69 6.163 1.075l1.332-5.818c-2.851-.434-5.509-.995-8.195-1.207-2.987-.235-5.896.261-8.63 1.67-5.777 2.977-5.883 12.116-.574 15.116 1.586.896 3.283 1.596 4.933 2.38 1.737.827 3.537 1.546 5.199 2.504 1.262.727 1.713 1.996 1.375 3.475-.313 1.375-1.354 1.988-2.577 2.105-1.86.177-3.768.347-5.609.128-2.217-.264-4.387-.937-6.658-1.451l-1.158 5.79c5.333 2.002 10.61 2.33 15.938 1.149 4.459-.988 6.999-3.596 7.343-7.128zm-28.415-9.452c-1.959-1.039-4.066-1.797-6.088-2.723-1.255-.575-2.584-1.074-3.69-1.871-2.127-1.533-1.731-4.472.746-5.258 1.421-.452 3.028-.592 4.521-.48 2.034.153 4.041.679 6.162 1.063l1.258-5.546c-1.077-.293-2.052-.612-3.051-.822-3.971-.836-7.963-1.16-11.874.215-3.36 1.182-5.691 3.392-6.152 7.11-.516 4.152.861 7.43 4.696 9.402 1.535.79 3.18 1.363 4.747 2.095 1.564.73 3.161 1.427 4.614 2.343 1.111.7 1.549 1.885 1.236 3.255-.311 1.358-1.301 2.042-2.533 2.169-1.86.191-3.769.368-5.611.153-2.226-.26-4.403-.935-6.714-1.455-.341 1.613-.741 3.238-.99 4.885-.054.358.345 1.046.681 1.163 5.384 1.866 10.864 2.134 16.34.521 3.27-.962 5.557-3.051 6.018-6.623.523-4.055-.444-7.544-4.316-9.596z"/></symbol><symbol id="linkedin-original" viewBox="0 0 128 128" xmlns="http://www.w3.org/2000/svg"><defs><style>.mcls-1{fill:#0076b2}.mcls-2{fill:#fff}</style></defs><title>Artboard 12</title><g id="moriginal"><path class="mcls-1" d="M116 3H12a8.91 8.91 0 0 0-9 8.8v104.42a8.91 8.91 0 0 0 9 8.78h104a8.93 8.93 0 0 0 9-8.81V11.77A8.93 8.93 0 0 0 116 3z"/><path class="mcls-2" d="M21.06 48.73h18.11V107H21.06zm9.06-29a10.5 10.5 0 1 1-10.5 10.49 10.5 10.5 0 0 1 10.5-10.49M50.53 48.73h17.36v8h.24c2.42-4.58 8.32-9.41 17.13-9.41C103.6 47.28 107 59.35 107 75v32H88.89V78.65c0-6.75-.12-15.44-9.41-15.44s-10.87 7.36-10.87 15V107H50.53z"/></g></symbol><symbol id="logo" viewBox="0 0 57 57" xmlns="http://www.w3.org/2000/svg"><style>.st0{opacity:.22;fill:#e80e72}.st1{opacity:.6233}.st2{opacity:.8883}.st3{opacity:.8345}.st4{opacity:.858}.st5{opacity:.9787}.st6{opacity:.4644}.st7{opacity:.6476}.st8{opacity:.8761}.st9{opacity:.8606}.st10{opacity:.22;fill:#ffde0c}.st11{opacity:.4629}.st12{opacity:.8457}.st13{opacity:.3684}.st14{opacity:.9913}.st15{opacity:.22;fill:#5fcae9}.st16{opacity:.5409}.st17{opacity:.5834}.st18{opacity:.6041}.st19{opacity:.6225}.st20{opacity:.4391}.st21{opacity:.567}.st22{opacity:.9937}.st23{opacity:.906}.st24{opacity:.3377}.nst25{fill:#1c1e21}</style><path class="nst25" d="M25.7 13.4h3.2v28.7c0 3.9-1 7-2.9 9.3-1.9 2.3-4.4 3.4-7.6 3.4-3.3 0-5.9-1-7.7-3.1C8.9 49.7 8 46.8 8 43h3.2c0 3 .6 5.2 1.9 6.6 1.3 1.5 3.1 2.2 5.3 2.2 2.2 0 3.9-.9 5.2-2.6s2-4.1 2-7V13.4z"/><path class="nst25" d="M51.4 5.2H39.8V43h-3.2V5.2H25v-3h26.4v3z"/></symbol><symbol viewBox="0 0 128 128" id="nodejs-original" xmlns="http://www.w3.org/2000/svg"><path fill="#83CD29" d="M112.771 30.334L68.674 4.729c-2.781-1.584-6.402-1.584-9.205 0L14.901 30.334C12.031 31.985 10 35.088 10 38.407v51.142c0 3.319 2.084 6.423 4.954 8.083l11.775 6.688c5.628 2.772 7.617 2.772 10.178 2.772 8.333 0 13.093-5.039 13.093-13.828v-50.49c0-.713-.371-1.774-1.071-1.774h-5.623C42.594 41 41 42.061 41 42.773v50.49c0 3.896-3.524 7.773-10.11 4.48L18.723 90.73c-.424-.23-.723-.693-.723-1.181V38.407c0-.482.555-.966.982-1.213l44.424-25.561c.415-.235 1.025-.235 1.439 0l43.882 25.555c.42.253.272.722.272 1.219v51.142c0 .488.183.963-.232 1.198l-44.086 25.576c-.378.227-.847.227-1.261 0l-11.307-6.749c-.341-.198-.746-.269-1.073-.086-3.146 1.783-3.726 2.02-6.677 3.043-.726.253-1.797.692.41 1.929l14.798 8.754a9.294 9.294 0 0 0 4.647 1.246c1.642 0 3.25-.426 4.667-1.246l43.885-25.582c2.87-1.672 4.23-4.764 4.23-8.083V38.407c0-3.319-1.36-6.414-4.229-8.073zM77.91 81.445c-11.726 0-14.309-3.235-15.17-9.066-.1-.628-.633-1.379-1.272-1.379h-5.731c-.709 0-1.279.86-1.279 1.566 0 7.466 4.059 16.512 23.453 16.512 14.039 0 22.088-5.455 22.088-15.109 0-9.572-6.467-12.084-20.082-13.886-13.762-1.819-15.16-2.738-15.16-5.962 0-2.658 1.184-6.203 11.374-6.203 9.105 0 12.461 1.954 13.842 8.091.118.577.645.991 1.24.991h5.754c.354 0 .692-.143.94-.396.24-.272.367-.613.335-.979-.891-10.568-7.912-15.493-22.112-15.493-12.631 0-20.166 5.334-20.166 14.275 0 9.698 7.497 12.378 19.622 13.577 14.505 1.422 15.633 3.542 15.633 6.395 0 4.955-3.978 7.066-13.309 7.066z"/></symbol><symbol id="npm-original-wordmark" viewBox="0 0 128 128" xmlns="http://www.w3.org/2000/svg"><defs><style>.pcls-1{fill:#cb3837}</style></defs><title>Artboard 5</title><path id="poriginal-wordmark" class="pcls-1" d="M2 38.5h124v43.71H64v7.29H36.44v-7.29H2zm6.89 36.43h13.78V53.07h6.89v21.86h6.89V45.79H8.89zm34.44-29.14v36.42h13.78v-7.28h13.78V45.79zm13.78 7.29H64v14.56h-6.89zm20.67-7.29v29.14h13.78V53.07h6.89v21.86h6.89V53.07h6.89v21.86h6.89V45.79z"/></symbol><symbol viewBox="0 0 128 128" id="photoshop-line" xmlns="http://www.w3.org/2000/svg"><path fill-rule="evenodd" clip-rule="evenodd" fill="#80B5E2" d="M126.216.727C89.993.716 53.932.717 17.708.717 12.527.717 7.257.713 2.076.728 1.748.729 1 .881 1 .964V127h126V.964c0-.083-.414-.237-.784-.237zM113.48 114.666c-32.641-.038-65.271-.03-97.912-.03-1.576 0-1.569-.003-1.569-1.627V15.212C14 13.605 13.984 14 15.577 14h97.798c1.638 0 1.625-.396 1.625 1.291v48.837c0 16.32-.007 32.64.036 48.959.004 1.243-.289 1.58-1.556 1.579zM56.82 39.644c-6.668-1.563-13.38-.792-20.085-.107-1.423.146-1.695.755-1.691 2.018C35.087 56.762 35 71.969 35 87.176V88h9V70.139c5 .375 9.576.286 14.049-1.31 7.169-2.558 10.752-8.111 10.365-16.219-.313-6.548-4.426-11.286-11.594-12.966zm-1.953 22.344c-3.194 1.557-6.59 1.52-10.005 1.058-.266-.036-.675-.511-.677-.784-.04-5.331-.03-10.661-.03-16.138 3.131-.488 6.1-.726 9.062.018 3.673.923 5.804 3.319 6.201 6.917.436 3.954-1.247 7.319-4.551 8.929zm33.301 7.106c-1.469-.805-3.08-1.347-4.606-2.053-1.41-.653-2.833-1.296-4.174-2.076-.935-.543-1.36-1.492-1.36-2.611 0-1.892 1.294-3.417 3.504-3.598 1.649-.135 3.361.035 4.994.34 1.376.256 2.681.899 4.082 1.395l1.767-6.269c-3.345-1.624-6.749-2.235-10.285-2.11-3.006.105-5.814.871-8.352 2.599-4.743 3.229-7.057 11.807.051 16.416 1.805 1.171 3.893 1.905 5.851 2.841 1.218.583 2.489 1.079 3.641 1.772 1.452.874 1.946 2.297 1.694 3.94-.247 1.615-1.33 2.638-2.836 2.874-1.68.264-3.466.435-5.118.144-2.339-.411-4.599-1.281-6.974-1.979-.426 1.59-.831 3.349-1.384 5.06-.303.938-.125 1.401.795 1.768 5.617 2.231 11.334 2.69 17.082.717 4.296-1.475 6.915-4.524 7.256-9.169.332-4.527-1.708-7.851-5.628-10.001z"/></symbol><symbol viewBox="0 0 128 128" id="sass-original" xmlns="http://www.w3.org/2000/svg"><path fill-rule="evenodd" clip-rule="evenodd" fill="#CB6699" d="M1.219 56.156c0 .703.207 1.167.323 1.618.756 2.933 2.381 5.45 4.309 7.746 2.746 3.272 6.109 5.906 9.554 8.383 2.988 2.148 6.037 4.248 9.037 6.38.515.366 1.002.787 1.561 1.236-.481.26-.881.489-1.297.7-3.959 2.008-7.768 4.259-11.279 6.986-2.116 1.644-4.162 3.391-5.607 5.674-2.325 3.672-3.148 7.584-1.415 11.761.506 1.22 1.278 2.274 2.367 3.053.353.252.749.502 1.162.6 1.058.249 2.136.412 3.207.609l3.033-.002c3.354-.299 6.407-1.448 9.166-3.352 4.312-2.976 7.217-6.966 8.466-12.087.908-3.722.945-7.448-.125-11.153a11.696 11.696 0 0 0-.354-1.014c-.13-.333-.283-.657-.463-1.072l6.876-3.954.103.088c-.125.409-.258.817-.371 1.23-.817 2.984-1.36 6.02-1.165 9.117.208 3.3 1.129 6.389 3.061 9.146 1.562 2.23 5.284 2.313 6.944.075.589-.795 1.16-1.626 1.589-2.513 1.121-2.315 2.159-4.671 3.23-7.011l.187-.428c-.077 1.108-.167 2.081-.208 3.055-.064 1.521.025 3.033.545 4.48.445 1.238 1.202 2.163 2.62 2.326.97.111 1.743-.333 2.456-.896a10.384 10.384 0 0 0 2.691-3.199c1.901-3.491 3.853-6.961 5.576-10.54 1.864-3.871 3.494-7.855 5.225-11.792l.286-.698c.409 1.607.694 3.181 1.219 4.671.61 1.729 1.365 3.417 2.187 5.058.389.775.344 1.278-.195 1.928-2.256 2.72-4.473 5.473-6.692 8.223-.491.607-.98 1.225-1.389 1.888a3.701 3.701 0 0 0-.48 1.364 1.737 1.737 0 0 0 1.383 1.971 9.661 9.661 0 0 0 2.708.193c3.097-.228 5.909-1.315 8.395-3.157 3.221-2.386 4.255-5.642 3.475-9.501-.211-1.047-.584-2.065-.947-3.074-.163-.455-.174-.774.123-1.198 2.575-3.677 4.775-7.578 6.821-11.569.081-.157.164-.314.306-.482.663 3.45 1.661 6.775 3.449 9.792-.912.879-1.815 1.676-2.632 2.554-1.799 1.934-3.359 4.034-4.173 6.595-.35 1.104-.619 2.226-.463 3.405.242 1.831 1.742 3.021 3.543 2.604 3.854-.892 7.181-2.708 9.612-5.925 1.636-2.166 1.785-4.582 1.1-7.113-.188-.688-.411-1.365-.651-2.154.951-.295 1.878-.649 2.837-.868 4.979-1.136 9.904-.938 14.702.86 2.801 1.05 5.064 2.807 6.406 5.571 1.639 3.379.733 6.585-2.452 8.721-.297.199-.637.356-.883.605a.869.869 0 0 0-.205.67c.021.123.346.277.533.275 1.047-.008 1.896-.557 2.711-1.121 2.042-1.413 3.532-3.314 3.853-5.817l.063-.188-.077-1.63c-.031-.094.023-.187.016-.258-.434-3.645-2.381-6.472-5.213-8.688-3.28-2.565-7.153-3.621-11.249-3.788a25.401 25.401 0 0 0-9.765 1.503c-.897.325-1.786.71-2.688 1.073-.121-.219-.251-.429-.358-.646-.926-1.896-2.048-3.708-2.296-5.882-.176-1.544-.392-3.086-.025-4.613.353-1.469.813-2.913 1.246-4.362.223-.746.066-1.164-.646-1.5a2.854 2.854 0 0 0-.786-.258c-1.75-.254-3.476-.109-5.171.384-.6.175-1.036.511-1.169 1.175-.076.381-.231.746-.339 1.122-.443 1.563-.757 3.156-1.473 4.645-1.794 3.735-3.842 7.329-5.938 10.897-.227.385-.466.763-.752 1.23-.736-1.54-1.521-2.922-1.759-4.542-.269-1.832-.481-3.661-.025-5.479.339-1.356.782-2.687 1.19-4.025.193-.636.104-.97-.472-1.305-.291-.169-.62-.319-.948-.368a11.643 11.643 0 0 0-5.354.438c-.543.176-.828.527-.994 1.087-.488 1.652-.904 3.344-1.589 4.915-2.774 6.36-5.628 12.687-8.479 19.013-.595 1.321-1.292 2.596-1.963 3.882-.17.326-.418.613-.63.919-.17-.201-.236-.339-.235-.477.005-.813-.092-1.65.063-2.436a172.189 172.189 0 0 1 1.578-7.099c.47-1.946 1.017-3.874 1.538-5.807.175-.647.178-1.252-.287-1.796-.781-.911-2.413-1.111-3.381-.409l-.428.242.083-.69c.204-1.479.245-2.953-.161-4.41-.506-1.816-1.802-2.861-3.686-2.803-.878.027-1.8.177-2.613.497-3.419 1.34-6.048 3.713-8.286 6.568a2.592 2.592 0 0 1-.757.654c-2.893 1.604-5.795 3.188-8.696 4.778l-3.229 1.769c-.866-.826-1.653-1.683-2.546-2.41-2.727-2.224-5.498-4.393-8.244-6.592-2.434-1.949-4.792-3.979-6.596-6.56-1.342-1.92-2.207-4.021-2.29-6.395-.105-3.025.753-5.789 2.293-8.362 1.97-3.292 4.657-5.934 7.611-8.327 3.125-2.53 6.505-4.678 10.008-6.639 4.901-2.743 9.942-5.171 15.347-6.774 5.542-1.644 11.165-2.585 16.965-1.929 2.28.258 4.494.78 6.527 1.895 1.557.853 2.834 1.97 3.428 3.716.586 1.718.568 3.459.162 5.204-.825 3.534-2.76 6.447-5.195 9.05-3.994 4.267-8.866 7.172-14.351 9.091a39.478 39.478 0 0 1-9.765 2.083c-2.729.229-5.401-.013-7.985-.962-1.711-.629-3.201-1.591-4.399-2.987-.214-.25-.488-.521-.887-.287-.391.23-.46.602-.329.979.219.626.421 1.278.762 1.838.857 1.405 2.107 2.424 3.483 3.298 2.643 1.681 5.597 2.246 8.66 2.377 4.648.201 9.183-.493 13.654-1.74 6.383-1.78 11.933-4.924 16.384-9.884 3.706-4.13 6.353-8.791 6.92-14.419.277-2.747-.018-5.438-1.304-7.944-1.395-2.715-3.613-4.734-6.265-6.125C68.756 18.179 64.588 17 60.286 17h-4.31c-5.21 0-10.247 1.493-15.143 3.274-3.706 1.349-7.34 2.941-10.868 4.703-7.683 3.839-14.838 8.468-20.715 14.833-2.928 3.171-5.407 6.67-6.833 10.79a40.494 40.494 0 0 0-1.111 3.746m27.839 36.013c-.333 4.459-2.354 8.074-5.657 11.002-1.858 1.646-3.989 2.818-6.471 3.23-.9.149-1.821.185-2.694-.188-1.245-.532-1.524-1.637-1.548-2.814-.037-1.876.62-3.572 1.521-5.186 1.176-2.104 2.9-3.708 4.741-5.206 2.9-2.361 6.046-4.359 9.268-6.245l.243-.1c.498 1.84.735 3.657.597 5.507zM54.303 70.98c-.235 1.424-.529 2.849-.945 4.229-1.438 4.777-3.285 9.406-5.282 13.973-.369.845-.906 1.616-1.373 2.417a1.689 1.689 0 0 1-.283.334c-.578.571-1.126.541-1.418-.206-.34-.868-.549-1.797-.729-2.716-.121-.617-.092-1.265-.13-1.897.039-4.494 1.41-8.578 3.736-12.38.959-1.568 2.003-3.062 3.598-4.054a6.27 6.27 0 0 1 1.595-.706c.85-.239 1.372.154 1.231 1.006zm17.164 21.868l6.169-7.203c.257 2.675-4.29 8.015-6.169 7.203zm19.703-4.847c-.436.25-.911.43-1.358.661-.409.212-.544-.002-.556-.354a2.385 2.385 0 0 1 .093-.721c.833-2.938 2.366-5.446 4.647-7.486l.16-.082c1.085 3.035-.169 6.368-2.986 7.982z"/></symbol><symbol id="slack-original" viewBox="0 0 128 128" xmlns="http://www.w3.org/2000/svg"><defs><style>.scls-1{fill:#80cade}.scls-2{fill:#db015c}.scls-3{fill:#e8a900}.scls-4{fill:#41b088}.scls-5{fill:#ca161a}.scls-6{fill:#3b1d37}.scls-7{fill:#69852c}.scls-8{fill:#118f79}</style></defs><title>Artboard 9</title><g id="soriginal"><path class="scls-1" d="M12.81 67.6a10.2 10.2 0 0 1-9.94-7c-.06-.17-.1-.33-.15-.49a10.69 10.69 0 0 1 6.92-13.04L97 17.8a11.82 11.82 0 0 1 3.19-.47 10.47 10.47 0 0 1 10.21 7.14l.13.42c1.63 5.71-2.43 10.81-7.29 12.44L16.36 67a11.3 11.3 0 0 1-3.55.6z"/><path class="scls-2" d="M27.37 110.55a10.19 10.19 0 0 1-10-6.89c-.05-.16-.1-.32-.15-.49A10.76 10.76 0 0 1 24.16 90l87.34-29.54a11.24 11.24 0 0 1 3.47-.58A10.55 10.55 0 0 1 125.15 67l.13.44a11.05 11.05 0 0 1-1.28 8.84c-1.25 1.95-5.19 3.66-5.19 3.66l-87.68 30a12 12 0 0 1-3.71.63z"/><path class="scls-3" d="M100.08 110.74a10.72 10.72 0 0 1-10.27-7.31L60.66 16.84l-.15-.49A10.74 10.74 0 0 1 81 10l29.15 86.58.08.28a10.73 10.73 0 0 1-10.17 13.89z"/><path class="scls-4" d="M56.75 125.33A10.73 10.73 0 0 1 46.48 118L17.33 31.43l-.15-.48a10.72 10.72 0 0 1 6.9-13.12 10.89 10.89 0 0 1 3.34-.56 10.72 10.72 0 0 1 10.27 7.31l29.14 86.59c.05.15.1.32.15.48a10.73 10.73 0 0 1-10.23 13.68z"/><path class="scls-5" d="M85.71 91.24L106 84.29l-6.61-19.73L79 71.44z"/><path class="scls-6" d="M42.45 106l20.32-6.95-6.69-19.85-20.35 6.88z"/><path class="scls-7" d="M71.24 48.26l20.33-6.94L85 21.82l-20.36 6.82z"/><path class="scls-8" d="M28 63l20.3-6.91-6.65-19.75-20.36 6.82L28 63z"/></g></symbol><symbol viewBox="0 0 496 512" id="spotify" xmlns="http://www.w3.org/2000/svg"><path d="M248 8C111.1 8 0 119.1 0 256s111.1 248 248 248 248-111.1 248-248S384.9 8 248 8zm100.7 364.9c-4.2 0-6.8-1.3-10.7-3.6-62.4-37.6-135-39.2-206.7-24.5-3.9 1-9 2.6-11.9 2.6-9.7 0-15.8-7.7-15.8-15.8 0-10.3 6.1-15.2 13.6-16.8 81.9-18.1 165.6-16.5 237 26.2 6.1 3.9 9.7 7.4 9.7 16.5s-7.1 15.4-15.2 15.4zm26.9-65.6c-5.2 0-8.7-2.3-12.3-4.2-62.5-37-155.7-51.9-238.6-29.4-4.8 1.3-7.4 2.6-11.9 2.6-10.7 0-19.4-8.7-19.4-19.4s5.2-17.8 15.5-20.7c27.8-7.8 56.2-13.6 97.8-13.6 64.9 0 127.6 16.1 177 45.5 8.1 4.8 11.3 11 11.3 19.7-.1 10.8-8.5 19.5-19.4 19.5zm31-76.2c-5.2 0-8.4-1.3-12.9-3.9-71.2-42.5-198.5-52.7-280.9-29.7-3.6 1-8.1 2.6-12.9 2.6-13.2 0-23.3-10.3-23.3-23.6 0-13.6 8.4-21.3 17.4-23.9 35.2-10.3 74.6-15.2 117.5-15.2 73 0 149.5 15.2 205.4 47.8 7.8 4.5 12.9 10.7 12.9 22.6 0 13.6-11 23.3-23.2 23.3z"/></symbol><symbol viewBox="0 0 384 512" id="stack-overflow" xmlns="http://www.w3.org/2000/svg"><path d="M293.7 300l-181.2-84.5 16.7-36.5 181.3 84.7-16.8 36.3zm48-76L188.2 95.7l-25.5 30.8 153.5 128.3 25.5-30.8zm39.6-31.7L262 32l-32 24 119.3 160.3 32-24zM290.7 311L95 269.7 86.8 309l195.7 41 8.2-39zm31.6 129H42.7V320h-40v160h359.5V320h-40v120zm-39.8-80h-200v39.7h200V360z"/></symbol><symbol viewBox="0 0 369.2 512" id="strava" xmlns="http://www.w3.org/2000/svg"><path d="M301.6 292l-43.9 88.2-44.6-88.2h-67.6l112.2 220 111.5-220h-67.6zM151.4 0L0 292h89.2l62.2-116.1L213.1 292h88.5L151.4 0z" class="vst1"/></symbol></svg>